<svg width="137" height="68" viewBox="0 0 137 68" fill="none" xmlns="http://www.w3.org/2000/svg">
<path fill-rule="evenodd" clip-rule="evenodd" d="M44.3291 4.00472C44.3291 1.78253 45.7844 0.500031 47.8879 0.500031C50.0036 0.500031 51.4464 1.72378 51.4464 3.99494C51.4464 6.22692 50.0036 7.48005 47.8879 7.48005C45.7844 7.48005 44.3291 6.26608 44.3291 4.00472ZM50.2114 3.99494C50.2114 2.05668 49.3308 1.26361 47.8879 1.26361C46.4815 1.26361 45.5642 2.05667 45.5642 4.00472C45.5642 5.95289 46.5181 6.71647 47.8879 6.71647C49.3063 6.71647 50.2114 5.9529 50.2114 3.99494ZM120.279 22.1581L120.293 22.1332C120.473 21.8661 120.837 21.7939 121.107 21.972C121.189 22.0258 121.252 22.0969 121.296 22.1768C123.084 24.7067 125.784 28.5161 128.692 32.6134C131.552 36.6431 134.435 40.6981 136.589 43.7213C136.775 43.9833 136.711 44.3454 136.447 44.5297C136.332 44.61 136.197 44.6432 136.067 44.6338L130.88 44.5763C130.679 44.5747 130.501 44.4721 130.398 44.3169L120.781 30.69L114.692 39.3069L123.145 39.3027C123.468 39.3027 123.729 39.5621 123.729 39.8816C123.729 40.0166 123.683 40.1404 123.605 40.2391L120.66 44.3588C120.547 44.5181 120.367 44.6032 120.184 44.6035L110.808 44.6103C110.747 44.6312 110.682 44.6417 110.617 44.6417V44.6443H105.513C105.189 44.6443 104.926 44.3839 104.926 44.063C104.926 43.9198 104.978 43.789 105.065 43.6876L120.279 22.1581ZM105.974 27.0431C105.894 27.1819 105.744 27.2764 105.572 27.2799L105.571 27.2804H99.4396V44.1513C99.4396 44.4042 99.2294 44.6126 98.9742 44.6126H94.4287C94.1735 44.6126 93.9632 44.4051 93.9632 44.1513V27.2803H85.475L85.4748 27.2801H85.4731C85.2117 27.2801 84.9995 26.986 84.9995 26.8108C84.9995 26.6654 85.0177 26.6396 85.0499 26.594L85.0499 26.5939L85.05 26.5938L85.0623 26.5761L85.0715 26.562L85.0683 26.5562L88.2229 22.0624L88.224 22.0618C88.3096 21.9413 88.4513 21.8625 88.6115 21.8625H88.6117L88.6134 21.8615L108.703 21.8625H108.709C108.97 21.8592 109.182 22.1429 109.182 22.3318C109.182 22.5096 109.143 22.5537 109.077 22.6273L109.064 22.6414L105.974 27.0431ZM80.2677 27.0431C80.1876 27.1819 80.0379 27.2764 79.8658 27.2799L79.8651 27.2804H73.7331V44.1513C73.7331 44.4042 73.5229 44.6126 73.2678 44.6126H68.7222C68.467 44.6126 68.2568 44.4051 68.2568 44.1513V27.2803H59.7685L59.7684 27.2801H59.7667C59.5053 27.2801 59.293 26.986 59.293 26.8108C59.293 26.6654 59.3112 26.6396 59.3434 26.594C59.3501 26.5846 59.3573 26.5743 59.3651 26.562L59.3619 26.5562L62.5166 22.0624L62.5175 22.0618C62.6033 21.9413 62.7449 21.8625 62.905 21.8625H62.9054L62.9069 21.8615L82.9961 21.8625H83.0022C83.2637 21.8592 83.4758 22.1429 83.4758 22.3318C83.4758 22.5095 83.4364 22.5537 83.3707 22.6273L83.3581 22.6414L80.2677 27.0431ZM53.7312 27.0431C53.6511 27.1819 53.5015 27.2764 53.3293 27.2799L53.3285 27.2804L33.9361 27.2803L33.9359 27.2801H33.9342C33.6728 27.2801 33.4606 27.07 33.4606 26.8108C33.4606 26.7194 33.4871 26.6341 33.5327 26.562L33.5294 26.5562L36.6842 22.0624L36.685 22.0618C36.7707 21.9413 36.9124 21.8625 37.0726 21.8625H37.0728L37.0745 21.8615L56.4596 21.8625H56.4657C56.7272 21.8592 56.9394 22.1429 56.9394 22.3318C56.9394 22.5096 56.8999 22.5537 56.834 22.6274L56.8215 22.6414L53.7312 27.0431ZM53.7312 44.3684C53.6511 44.5073 53.5015 44.6017 53.3293 44.6051L53.3285 44.6056H33.9361L33.9359 44.6054H33.9342C33.6728 44.6054 33.4606 44.3951 33.4606 44.1361C33.4606 44.0984 33.4652 44.0617 33.4737 44.0265V35.5829C33.4652 35.5479 33.4606 35.5111 33.4606 35.4733C33.4606 35.382 33.4871 35.2967 33.5327 35.2247L33.5294 35.219L36.6842 30.7251L36.685 30.7246C36.7707 30.6039 36.9124 30.5251 37.0726 30.5251H37.0728L37.0745 30.5243L56.4596 30.5252L56.4657 30.5251C56.7272 30.5218 56.9394 30.8055 56.9394 30.9944C56.9394 31.1724 56.8998 31.2166 56.8339 31.2902L56.8215 31.304L53.7312 35.7056C53.6511 35.8446 53.5015 35.939 53.3293 35.9426L53.3285 35.9431L39.0178 35.9429V39.1869L56.4596 39.1878L56.4657 39.1876C56.7272 39.1843 56.9394 39.4682 56.9394 39.657C56.9394 39.835 56.8999 39.8791 56.834 39.9526L56.8215 39.9666L53.7312 44.3684ZM0.507342 21.8627H5.04109C5.053 21.8625 5.06502 21.8626 5.07681 21.8633L5.07835 21.8634L5.08121 21.8636C5.23586 21.8728 5.37073 21.9579 5.44835 22.0814L14.8072 35.4444L24.1655 22.0814C24.2431 21.9579 24.3779 21.8728 24.5326 21.8636L24.5355 21.8634L24.537 21.8633C24.5489 21.8626 24.5609 21.8625 24.5728 21.8627H29.1064C29.3625 21.8627 29.5719 22.0701 29.5719 22.3238V44.1513C29.5719 44.4051 29.3625 44.6126 29.1064 44.6126H24.5609C24.3049 44.6126 24.0955 44.4051 24.0955 44.1513V31.6994L16.1207 43.0867L15.2267 44.3634C15.1482 44.5122 14.9912 44.6135 14.8103 44.6135C14.673 44.6135 14.5496 44.5553 14.4636 44.4626C14.4513 44.4514 14.44 44.4389 14.4298 44.4244L13.4931 43.0867L5.51835 31.6994V44.1513C5.51835 44.4051 5.30907 44.6126 5.053 44.6126H0.507342C0.251273 44.6126 0.0419922 44.4051 0.0419922 44.1513V22.3238C0.0419922 22.0701 0.251273 21.8627 0.507342 21.8627ZM16.7742 6.35415C16.7497 6.19749 16.6152 5.12072 16.6152 4.2984V0.617462H17.7036V7.3625H16.1505L12.7263 1.63561L12.7355 1.71969C12.7968 2.27533 12.8853 3.07739 12.8853 4.26902V7.3625H11.7969V0.617462H13.3133L16.7742 6.35415ZM33.1562 4.2984C33.1562 5.12072 33.2907 6.19749 33.3151 6.35415L29.8542 0.617462H28.3379V7.3625H29.4263V4.26902C29.4263 3.07741 29.3378 2.27535 29.2765 1.71971L29.2673 1.63561L32.6915 7.3625H34.2445V0.617462H33.1562V4.2984ZM65.799 0.617462L63.6834 6.35415L61.5678 0.617462H60.3203L63.0352 7.3625H64.2825L66.973 0.617462H65.799ZM79.3069 0.617462L81.9972 7.3625H80.7744L80.1385 5.66889H76.9467L76.3108 7.3625H75.1367L77.8393 0.617462H79.3069ZM78.5487 1.39083L77.228 4.91511H79.8571L78.5487 1.39083ZM95.7275 1.41041L95.8497 0.617462H89.833V1.41041H92.2299V7.3625H93.3917V1.41041H95.7275ZM121.509 0.617462L119.393 6.35415L117.278 0.617462H116.03L118.745 7.3625H119.993L122.683 0.617462H121.509ZM136.729 0.617462L136.595 1.36146H133.33V3.56419H136.167V4.30819H133.33V6.6185H136.827V7.3625H132.168V0.617462H136.729ZM4.42685 61.3816L4.56137 60.6376H0V67.3826H4.65924V66.6386H1.16178V64.3283H3.99888V63.5843H1.16178V61.3816H4.42685ZM17.4107 64.3577L19.6854 67.3826H18.3035L16.2856 64.5241H14.9772V67.3826H13.8154V60.6376H16.0289C18.1323 60.6376 19.2329 61.2837 19.2329 62.5466C19.2329 63.4962 18.6214 64.0639 17.4107 64.3577ZM17.9978 62.5466C17.9978 61.7047 17.3985 61.362 16.0167 61.362H14.9772V63.8094H16.1512C17.3251 63.8094 17.9978 63.457 17.9978 62.5466ZM31.4838 60.52C29.5393 60.52 27.8271 61.734 27.8271 64.0051C27.8271 66.335 29.1846 67.5 31.3614 67.5C32.4376 67.5 33.318 67.2651 34.1129 66.9029V63.643H31.337L31.4715 64.3968H32.9634V66.4329C32.4865 66.6483 31.9239 66.7365 31.3614 66.7365C29.8816 66.7365 29.0623 65.9435 29.0623 64.0051C29.0623 62.0179 30.273 61.2836 31.4838 61.2836C32.2419 61.2836 32.7434 61.45 33.3303 61.8319L34.015 61.264C33.2936 60.7844 32.5966 60.52 31.4838 60.52ZM42.8164 64.0247C42.8164 61.8025 44.2718 60.52 46.3752 60.52C48.4907 60.52 49.9337 61.7438 49.9337 64.0149C49.9337 66.2469 48.4907 67.5 46.3752 67.5C44.2718 67.5 42.8164 66.2861 42.8164 64.0247ZM48.6987 64.0149C48.6987 62.0767 47.818 61.2836 46.3752 61.2836C44.9688 61.2836 44.0515 62.0767 44.0515 64.0247C44.0515 65.9729 45.0054 66.7365 46.3752 66.7365C47.7936 66.7365 48.6987 65.9729 48.6987 64.0149ZM63.9218 64.3185C63.9218 65.1408 64.0563 66.2176 64.0807 66.3743L60.6198 60.6376H59.1035V67.3826H60.192V64.2891C60.192 63.0976 60.1035 62.2956 60.0422 61.7399V61.7399L60.0329 61.6557L63.4572 67.3826H65.0102V60.6376H63.9218V64.3185ZM74.1787 64.0247C74.1787 61.8025 75.634 60.52 77.7375 60.52C79.8532 60.52 81.2961 61.7438 81.2961 64.0149C81.2961 66.2469 79.8532 67.5 77.7375 67.5C75.634 67.5 74.1787 66.2861 74.1787 64.0247ZM80.061 64.0149C80.061 62.0767 79.1804 61.2836 77.7375 61.2836C76.3311 61.2836 75.4139 62.0767 75.4139 64.0247C75.4139 65.9729 76.3677 66.7365 77.7375 66.7365C79.156 66.7365 80.061 65.9729 80.061 64.0149ZM95.6384 60.6376L93.9507 65.5422L92.1775 60.6376H90.6123L89.915 67.3826H91.0158L91.297 64.4066C91.3949 63.4179 91.456 62.3703 91.456 61.5774L93.376 66.619H94.4644L96.2865 61.5872C96.2988 62.1451 96.3844 63.2808 96.4945 64.3381L96.7879 67.3826H97.9129L97.2159 60.6376H95.6384ZM120.996 60.52C119.088 60.52 117.498 61.7242 117.498 64.0051C117.498 66.2763 118.978 67.5 121.02 67.5C122.157 67.5 122.965 67.128 123.429 66.7463L122.854 66.1588C122.378 66.4427 121.852 66.7169 121.057 66.7169C119.748 66.7169 118.733 65.9533 118.733 64.0051C118.733 61.969 119.797 61.2836 121.069 61.2836C121.656 61.2836 122.17 61.4403 122.695 61.7829L123.331 61.1858C122.659 60.755 122.06 60.52 120.996 60.52ZM131.472 62.2822C131.472 61.2445 132.573 60.52 134.126 60.52C135.288 60.52 136.021 60.7942 136.731 61.3032L136.095 61.8711C135.459 61.4598 134.872 61.2836 134.175 61.2836C133.331 61.2836 132.658 61.5969 132.658 62.243C132.658 62.8109 132.989 63.0849 134.505 63.457C135.85 63.7897 137 64.2107 137 65.5029C137 66.6777 135.887 67.5 133.991 67.5C132.781 67.5 131.827 67.1769 131.13 66.6288L131.766 66.061C132.402 66.4721 133.062 66.7365 133.979 66.7365C134.97 66.7365 135.789 66.3448 135.789 65.5323C135.789 64.8764 135.398 64.5827 133.967 64.2303C132.328 63.8289 131.472 63.3297 131.472 62.2822ZM1.16178 0.617462H0V7.3625H1.16178V0.617462ZM105.383 0.617462H106.545V7.3625H105.383V0.617462ZM107.167 60.6376H108.329V67.3826H107.167V60.6376Z" fill="white"/>
</svg>
