<svg width="81" height="118" viewBox="0 0 81 118" fill="none" xmlns="http://www.w3.org/2000/svg">
<path d="M6.258 115.998C8.56324 115.998 10.432 114.13 10.432 111.824C10.432 109.519 8.56324 107.65 6.258 107.65C3.95276 107.65 2.084 109.519 2.084 111.824C2.084 114.13 3.95276 115.998 6.258 115.998Z" stroke="#4BACFF" stroke-width="4"/>
<path d="M40.248 115.998C42.5532 115.998 44.422 114.13 44.422 111.824C44.422 109.519 42.5532 107.65 40.248 107.65C37.9428 107.65 36.074 109.519 36.074 111.824C36.074 114.13 37.9428 115.998 40.248 115.998Z" stroke="#4BACFF" stroke-width="4"/>
<path d="M74.79 115.998C77.0952 115.998 78.964 114.13 78.964 111.824C78.964 109.519 77.0952 107.65 74.79 107.65C72.4848 107.65 70.616 109.519 70.616 111.824C70.616 114.13 72.4848 115.998 74.79 115.998Z" stroke="#4BACFF" stroke-width="4"/>
<path d="M5.646 107.652L29.781 100.842C36.9256 98.8272 44.4905 98.8441 51.626 100.891L75.202 107.652" stroke="#4BACFF" stroke-width="4"/>
<path d="M40.248 86.4302V99.3442" stroke="#4BACFF" stroke-width="4"/>
<path d="M40.275 99.3442V107.294" stroke="#4BACFF" stroke-width="4"/>
<path d="M22.633 75.9589C23.733 60.0509 40.839 59.5859 40.839 59.5859L47.656 59.147" stroke="#4BACFF" stroke-width="4"/>
<path d="M10.257 0.722168C10.917 22.1672 28.147 28.7471 20.885 49.9421C18.65 56.4701 8.128 67.5532 17.285 75.6602C21.71 79.5722 44.299 73.5162 70.79 76.9182" stroke="#4BACFF" stroke-width="4"/>
<path d="M46.814 75.958L45.524 83.623C45.3679 84.5504 44.8883 85.3924 44.1703 85.9996C43.4523 86.6069 42.5424 86.9401 41.602 86.9401H38.895C37.9543 86.9402 37.0439 86.6071 36.3254 85.9999C35.6069 85.3927 35.1267 84.5506 34.97 83.623L33.77 76.488" stroke="#4BACFF" stroke-width="4"/>
</svg>
